<svg xmlns="http://www.w3.org/2000/svg"
     xmlns:xlink="http://www.w3.org/1999/xlink"
     viewBox="0 0 18 18">
  <style>
    path {
      display: none;
    }
    path:target {
      display: block;
      stroke-width: 1;
    }
    .normal {
      fill: #505050;
      fill-opacity: 0.8;
      stroke: #404040;
    }
    @media (-moz-windows-default-theme) and (-moz-os-version: windows-win8) {
      .normal {
        fill: #797c80;
        fill-opacity: 1;
        stroke: #797c80;
        stroke-opacity: 0;
      }
    }
    @media (-moz-windows-default-theme) and (-moz-os-version: windows-win10) {
      .normal {
        fill: #4c4c4c;
        fill-opacity: 1;
        stroke: #4c4c4c;
        stroke-opacity: 0;
      }
    }
    @media (-moz-windows-default-theme) and (-moz-os-version: windows-vista),
       (-moz-windows-default-theme) and (-moz-os-version: windows-win7) {
      .normal {
        fill: url(#win1);
        fill-opacity: 1;
        stroke: url(#win2);
      }
    }
    @media (-moz-mac-yosemite-theme) {
      .normal {
        fill: #4d4d4d;
        fill-opacity: 1;
        stroke-opacity: 0;
      }
    }
    .inverted {
      fill: #fff;
      fill-opacity: 1;
      stroke: #111922;
    }
    .unread {
      fill: #3971c3;
      fill-opacity: 1;
      stroke: #115174;
    }
  </style>
  <defs>
    <linearGradient
       id="win1"
       x1="8"
       y1="1"
       x2="8"
       y2="15"
       gradientUnits="userSpaceOnUse">
       <stop stop-color="#3f4f5a" offset="0"/>
       <stop stop-color="#7e8c97" offset="1"/>
    </linearGradient>
    <linearGradient
       id="win2"
       x1="8"
       y1="1"
       x2="8"
       y2="15"
       gradientUnits="userSpaceOnUse">
      <stop stop-color="#0c1b25" offset="0"/>
      <stop stop-color="#4f585f" stop-opacity="0.9" offset="1"/>
    </linearGradient>
  </defs>
  <path id="synchronize" class="normal" d="m 11.5,1.9 0,3.7 c 3.7,1.8 1.7,5.5 -1,6.8 l -2,-1.9 0,6 5.7,0 -1.6,-1.6 C 18.5,12.5 18.2,2.7 11.5,1.9 Z m -3.8,3.8 1.8,1.8 0,-6 -5.8,0 L 5.3,3 C -0.9,6.3 0.4,15 6.5,16.1 l 0,-3.6 C 3,10.7 4.5,7 7.7,5.7 Z"/>
  <path id="synchronize-flat" class="normal" d="m 11,2.4 0,3.7 c 3,1.6 2.4,4.4 0,5.8 L 9,10 l 0,6 5.7,0 -1.6,-1.6 C 17.6,12 17,3.2 11,2.4 Z M 7.2,6.2 9,8 9,2 3.2,2 4.8,3.5 C -0.4,6.7 2.3,14.4 7,15.6 L 7,12 C 4.1,10.2 4.3,7.3 7.2,6.2 Z"/>
  <path id="synchronize-inverted" class="inverted" d="m 11.5,1.9 0,3.7 c 3.6,1.2 2.1,5.4 -0.7,6.5 L 8.5,9.5 l 0,7 6.7,0 -1.9,-2 C 18.6,11.6 18,2.8 11.5,1.9 Z M 7,6 9.5,8.5 l 0,-7 -6.8,0 2.2,2.1 C -0.9,6.8 0.6,14.8 6.5,16.1 l 0,-3.6 C 3.5,11 4,7.3 7,6 Z"/>
  <path id="edit" class="normal" d="M 3.6,11.5 2.2,15.7 6.5,14.3 15.8,5 13,2.2 Z m 0,0 L 4.1,11 7,13.8 6.5,14.3 2.2,15.7 Z"/>
  <path id="edit-flat" class="normal" d="M 4.2,11 2.5,15.5 7,13.8 Z M 7.7,13 15.5,5.3 12.7,2.5 5,10.3 Z"/>
  <path id="edit-inverted" class="inverted" d="M 3.6,11.5 2.2,15.7 6.5,14.3 15.8,4.9 13,2.1 Z m 1,-1 0.4,-0.4 2.8,2.8 -0.4,0.4 z"/>
</svg>
